<svg width="21" height="20" viewBox="0 0 21 20" fill="none" xmlns="http://www.w3.org/2000/svg">
<g clip-path="url(#clip0_39_1660)">
<path d="M1.49935 5.00004H19.8327C20.0537 5.00004 20.2657 4.91224 20.4219 4.75596C20.5782 4.59968 20.666 4.38772 20.666 4.16671C20.666 3.94569 20.5782 3.73373 20.4219 3.57745C20.2657 3.42117 20.0537 3.33337 19.8327 3.33337H1.49935C1.27834 3.33337 1.06637 3.42117 0.910093 3.57745C0.753813 3.73373 0.666016 3.94569 0.666016 4.16671C0.666016 4.38772 0.753813 4.59968 0.910093 4.75596C1.06637 4.91224 1.27834 5.00004 1.49935 5.00004Z" fill="white"/>
<path d="M4.83333 7.5C4.61232 7.5 4.40036 7.5878 4.24408 7.74408C4.0878 7.90036 4 8.11232 4 8.33333C4 8.55434 4.0878 8.76631 4.24408 8.92259C4.40036 9.07887 4.61232 9.16666 4.83333 9.16666H16.5C16.721 9.16666 16.933 9.07887 17.0893 8.92259C17.2455 8.76631 17.3333 8.55434 17.3333 8.33333C17.3333 8.11232 17.2455 7.90036 17.0893 7.74408C16.933 7.5878 16.721 7.5 16.5 7.5H4.83333Z" fill="white"/>
<path d="M16.5 15.8333H4.83333C4.61232 15.8333 4.40036 15.9211 4.24408 16.0774C4.0878 16.2337 4 16.4456 4 16.6667C4 16.8877 4.0878 17.0996 4.24408 17.2559C4.40036 17.4122 4.61232 17.5 4.83333 17.5H16.5C16.721 17.5 16.933 17.4122 17.0893 17.2559C17.2455 17.0996 17.3333 16.8877 17.3333 16.6667C17.3333 16.4456 17.2455 16.2337 17.0893 16.0774C16.933 15.9211 16.721 15.8333 16.5 15.8333Z" fill="white"/>
<path d="M19.8327 11.6667H1.49935C1.27834 11.6667 1.06637 11.7545 0.910093 11.9108C0.753813 12.067 0.666016 12.279 0.666016 12.5C0.666016 12.721 0.753813 12.933 0.910093 13.0893C1.06637 13.2456 1.27834 13.3334 1.49935 13.3334H19.8327C20.0537 13.3334 20.2657 13.2456 20.4219 13.0893C20.5782 12.933 20.666 12.721 20.666 12.5C20.666 12.279 20.5782 12.067 20.4219 11.9108C20.2657 11.7545 20.0537 11.6667 19.8327 11.6667Z" fill="white"/>
</g>
<defs>
<clipPath id="clip0_39_1660">
<rect width="20" height="20" fill="white" transform="translate(0.666016)"/>
</clipPath>
</defs>
</svg>
