<svg width="21" height="20" viewBox="0 0 21 20" fill="none" xmlns="http://www.w3.org/2000/svg">
<g clip-path="url(#clip0_39_1645)">
<path d="M1.16536 5.00004H19.4987C19.7197 5.00004 19.9317 4.91224 20.088 4.75596C20.2442 4.59968 20.332 4.38772 20.332 4.16671C20.332 3.94569 20.2442 3.73373 20.088 3.57745C19.9317 3.42117 19.7197 3.33337 19.4987 3.33337H1.16536C0.944351 3.33337 0.732389 3.42117 0.576109 3.57745C0.419829 3.73373 0.332031 3.94569 0.332031 4.16671C0.332031 4.38772 0.419829 4.59968 0.576109 4.75596C0.732389 4.91224 0.944351 5.00004 1.16536 5.00004Z" fill="white"/>
<path d="M19.498 7.5H7.83138C7.61037 7.5 7.3984 7.5878 7.24212 7.74408C7.08584 7.90036 6.99805 8.11232 6.99805 8.33333C6.99805 8.55434 7.08584 8.76631 7.24212 8.92259C7.3984 9.07887 7.61037 9.16666 7.83138 9.16666H19.498C19.7191 9.16666 19.931 9.07887 20.0873 8.92259C20.2436 8.76631 20.3314 8.55434 20.3314 8.33333C20.3314 8.11232 20.2436 7.90036 20.0873 7.74408C19.931 7.5878 19.7191 7.5 19.498 7.5Z" fill="white"/>
<path d="M19.498 15.8333H7.83138C7.61037 15.8333 7.3984 15.9211 7.24212 16.0774C7.08584 16.2337 6.99805 16.4456 6.99805 16.6667C6.99805 16.8877 7.08584 17.0996 7.24212 17.2559C7.3984 17.4122 7.61037 17.5 7.83138 17.5H19.498C19.7191 17.5 19.931 17.4122 20.0873 17.2559C20.2436 17.0996 20.3314 16.8877 20.3314 16.6667C20.3314 16.4456 20.2436 16.2337 20.0873 16.0774C19.931 15.9211 19.7191 15.8333 19.498 15.8333Z" fill="white"/>
<path d="M19.4987 11.6667H1.16536C0.944351 11.6667 0.732389 11.7545 0.576109 11.9108C0.419829 12.067 0.332031 12.279 0.332031 12.5C0.332031 12.721 0.419829 12.933 0.576109 13.0893C0.732389 13.2456 0.944351 13.3334 1.16536 13.3334H19.4987C19.7197 13.3334 19.9317 13.2456 20.088 13.0893C20.2442 12.933 20.332 12.721 20.332 12.5C20.332 12.279 20.2442 12.067 20.088 11.9108C19.9317 11.7545 19.7197 11.6667 19.4987 11.6667Z" fill="white"/>
</g>
<defs>
<clipPath id="clip0_39_1645">
<rect width="20" height="20" fill="white" transform="translate(0.332031)"/>
</clipPath>
</defs>
</svg>
