<svg width="11" height="10" viewBox="0 0 11 10" fill="none" xmlns="http://www.w3.org/2000/svg">
<path d="M10.25 4.24998H2.75L5.2175 1.78248C5.2878 1.71276 5.34359 1.62981 5.38167 1.53842C5.41974 1.44702 5.43935 1.34899 5.43935 1.24998C5.43935 1.15097 5.41974 1.05295 5.38167 0.961551C5.34359 0.870157 5.2878 0.787206 5.2175 0.717484C5.07698 0.577796 4.88689 0.49939 4.68875 0.49939C4.49061 0.49939 4.30052 0.577796 4.16 0.717484L0.9425 3.94248C0.660809 4.22249 0.501675 4.6028 0.5 4.99998C0.50365 5.39456 0.662633 5.7718 0.9425 6.04998L4.16 9.27497C4.22993 9.34441 4.31285 9.39939 4.40403 9.43678C4.49521 9.47417 4.59286 9.49324 4.6914 9.49289C4.78995 9.49254 4.88746 9.47279 4.97837 9.43475C5.06928 9.39672 5.15181 9.34115 5.22125 9.27122C5.29069 9.20129 5.34567 9.11837 5.38306 9.0272C5.42045 8.93602 5.43952 8.83837 5.43917 8.73982C5.43882 8.64128 5.41906 8.54376 5.38103 8.45285C5.343 8.36194 5.28743 8.27941 5.2175 8.20998L2.75 5.74998H10.25C10.4489 5.74998 10.6397 5.67096 10.7803 5.53031C10.921 5.38966 11 5.19889 11 4.99998C11 4.80107 10.921 4.6103 10.7803 4.46965C10.6397 4.329 10.4489 4.24998 10.25 4.24998Z" fill="white"/>
</svg>
