<svg width="22" height="20" viewBox="0 0 22 20" fill="none" xmlns="http://www.w3.org/2000/svg">
<path fill-rule="evenodd" clip-rule="evenodd" d="M0.5 9.07871C0.5 7.07097 2.13989 5.44337 4.16279 5.44337H17.5605C19.017 5.44337 20.1977 6.61524 20.1977 8.06082V9.22646C20.924 9.26828 21.5 9.86611 21.5 10.5975V14.3459C21.5 15.0773 20.924 15.6751 20.1977 15.7169V16.8826C20.1977 18.3281 19.017 19.5 17.5605 19.5H4.16279C2.13988 19.5 0.5 17.8724 0.5 15.8647V9.07871ZM4.16279 6.89751C2.94905 6.89751 1.96512 7.87407 1.96512 9.07871V15.8647C1.96512 17.0693 2.94905 18.0459 4.16279 18.0459H17.5605C18.2078 18.0459 18.7326 17.525 18.7326 16.8826V15.6385C18.7326 14.9071 19.3086 14.3093 20.0349 14.2675V10.6759C19.3086 10.6341 18.7326 10.0363 18.7326 9.30491V8.06082C18.7326 7.41834 18.2078 6.89751 17.5605 6.89751H4.16279Z" fill="#FD1966"/>
<path fill-rule="evenodd" clip-rule="evenodd" d="M14.1743 11.0175C14.1743 10.0806 14.9396 9.32106 15.8836 9.32106H19.7906C20.7346 9.32106 21.4999 10.0806 21.4999 11.0175V13.9258C21.4999 14.8628 20.7346 15.6223 19.7906 15.6223H15.8836C14.9396 15.6223 14.1743 14.8628 14.1743 13.9258V11.0175ZM15.8836 10.7752C15.7488 10.7752 15.6394 10.8837 15.6394 11.0175V13.9258C15.6394 14.0597 15.7488 14.1682 15.8836 14.1682H19.7906C19.9255 14.1682 20.0348 14.0597 20.0348 13.9258V11.0175C20.0348 10.8837 19.9255 10.7752 19.7906 10.7752H15.8836Z" fill="#FD1966"/>
<path fill-rule="evenodd" clip-rule="evenodd" d="M12.8017 2.08076C12.7348 1.95915 12.5791 1.91778 12.46 1.99002L6.76635 5.44337H14.6497L12.8017 2.08076ZM11.696 0.749232C12.5297 0.243575 13.62 0.533143 14.0879 1.38445L16.448 5.67892C16.7498 6.22802 16.3494 6.89751 15.7192 6.89751H4.50991C3.67143 6.89751 3.3615 5.80435 4.07699 5.37039L11.696 0.749232Z" fill="#FD1966"/>
<path fill-rule="evenodd" clip-rule="evenodd" d="M8.06969 15.6223C7.66511 15.6223 7.33713 15.2968 7.33713 14.8952L7.33713 10.0481C7.33713 9.64659 7.66511 9.32107 8.06969 9.32107C8.47427 9.32107 8.80225 9.64659 8.80225 10.0481L8.80225 14.8952C8.80225 15.2968 8.47427 15.6223 8.06969 15.6223Z" fill="#FD1966"/>
</svg>
