<svg width="28" height="22" viewBox="0 0 28 22" fill="none" xmlns="http://www.w3.org/2000/svg">
<path d="M23.7187 2.52361C21.9062 1.72689 19.9681 1.14785 17.942 0.818176C17.6932 1.24084 17.4025 1.80931 17.2021 2.26155C15.0482 1.95724 12.9142 1.95724 10.8 2.26155C10.5997 1.80931 10.3022 1.24084 10.0512 0.818176C8.02289 1.14785 6.08271 1.729 4.27023 2.52783C0.614424 7.71801 -0.37661 12.7794 0.118901 17.7689C2.54362 19.4701 4.89347 20.5035 7.20364 21.1797C7.77408 20.4422 8.28278 19.6582 8.72111 18.8319C7.88633 18.5339 7.08693 18.1662 6.33157 17.7392C6.53202 17.5998 6.72802 17.454 6.9174 17.3039C11.5247 19.3285 16.5303 19.3285 21.0826 17.3039C21.2741 17.454 21.4701 17.5998 21.6683 17.7392C20.9108 18.1682 20.1091 18.5359 19.2744 18.834C19.7126 19.6582 20.2192 20.4443 20.7918 21.1818C23.1042 20.5056 25.4562 19.4722 27.881 17.7689C28.4624 11.9848 26.8878 6.9699 23.7187 2.52361ZM9.34869 14.7004C7.96562 14.7004 6.83149 13.4873 6.83149 12.0102C6.83149 10.533 7.94144 9.31783 9.34869 9.31783C10.7559 9.31783 11.8901 10.5309 11.8659 12.0102C11.8682 13.4873 10.7559 14.7004 9.34869 14.7004ZM18.6512 14.7004C17.2681 14.7004 16.134 13.4873 16.134 12.0102C16.134 10.533 17.2439 9.31783 18.6512 9.31783C20.0584 9.31783 21.1927 10.5309 21.1684 12.0102C21.1684 13.4873 20.0584 14.7004 18.6512 14.7004Z" fill="#5865F2"/>
</svg>
