<svg width="22" height="22" viewBox="0 0 22 22" fill="none" xmlns="http://www.w3.org/2000/svg">
<path fill-rule="evenodd" clip-rule="evenodd" d="M0.500882 6.11669C0.501069 3.01468 3.0159 0.500152 6.11792 0.500338L15.8833 0.500927C18.9853 0.501114 21.4998 3.01595 21.4996 6.11796L21.499 15.8833C21.4988 18.9853 18.984 21.4998 15.882 21.4997L6.11665 21.4991C3.01463 21.4989 0.500107 18.9841 0.500294 15.882L0.500882 6.11669ZM6.11783 1.96556C3.82503 1.96543 1.96625 3.82399 1.96611 6.11678L1.96552 15.8821C1.96538 18.1749 3.82394 20.0337 6.11674 20.0338L15.8821 20.0344C18.1749 20.0346 20.0337 18.176 20.0338 15.8832L20.0344 6.11787C20.0345 3.82508 18.176 1.96629 15.8832 1.96615L6.11783 1.96556Z" fill="#FD1966"/>
<path fill-rule="evenodd" clip-rule="evenodd" d="M10.9986 4.68555C11.4032 4.68555 11.7312 5.01355 11.7312 5.41816V12.394C11.7312 12.7986 11.4032 13.1266 10.9986 13.1266C10.594 13.1266 10.266 12.7986 10.266 12.394V5.41816C10.266 5.01355 10.594 4.68555 10.9986 4.68555Z" fill="#FD1966"/>
<path fill-rule="evenodd" clip-rule="evenodd" d="M6.9387 9.84358C7.19145 9.52763 7.65248 9.47641 7.96843 9.72916L10.9987 12.1533L14.029 9.72916C14.3449 9.47641 14.8059 9.52763 15.0587 9.84358C15.3114 10.1595 15.2602 10.6206 14.9443 10.8733L11.5173 13.6148C11.2141 13.8574 10.7832 13.8574 10.48 13.6148L7.05311 10.8733C6.73716 10.6206 6.68594 10.1595 6.9387 9.84358Z" fill="#FD1966"/>
<path fill-rule="evenodd" clip-rule="evenodd" d="M6.08032 16.5795C6.08032 16.1749 6.40832 15.8469 6.81293 15.8469H15.1839C15.5885 15.8469 15.9166 16.1749 15.9166 16.5795C15.9166 16.9841 15.5885 17.3121 15.1839 17.3121H6.81293C6.40832 17.3121 6.08032 16.9841 6.08032 16.5795Z" fill="#FD1966"/>
</svg>
