<svg width="19" height="18" viewBox="0 0 19 18" fill="none" xmlns="http://www.w3.org/2000/svg">
<path fill-rule="evenodd" clip-rule="evenodd" d="M0.544922 4.25C0.544922 2.73122 1.77614 1.5 3.29492 1.5H15.7949C17.3137 1.5 18.5449 2.73122 18.5449 4.25V13.75C18.5449 15.2688 17.3137 16.5 15.7949 16.5H3.29492C1.77614 16.5 0.544922 15.2688 0.544922 13.75V4.25ZM3.29492 3C2.60457 3 2.04492 3.55964 2.04492 4.25V13.75C2.04492 14.4404 2.60457 15 3.29492 15H15.7949C16.4853 15 17.0449 14.4404 17.0449 13.75V4.25C17.0449 3.55964 16.4853 3 15.7949 3H3.29492Z" fill="white"/>
<path fill-rule="evenodd" clip-rule="evenodd" d="M14.6532 7.77349C14.1413 7.35467 13.3917 7.4071 12.9431 7.89309L5.22103 16.2587C4.94008 16.5631 4.46558 16.582 4.16122 16.3011C3.85685 16.0201 3.83787 15.5456 4.11882 15.2413L11.8409 6.87567C12.8279 5.80648 14.4769 5.69115 15.603 6.61256L18.2699 8.79451C18.5904 9.05681 18.6377 9.52932 18.3754 9.84991C18.1131 10.1705 17.6406 10.2177 17.32 9.95545L14.6532 7.77349Z" fill="white"/>
<path fill-rule="evenodd" clip-rule="evenodd" d="M6.57617 13.8428L0.763672 8.03033L1.82433 6.96967L7.63683 12.7822L6.57617 13.8428Z" fill="white"/>
<path fill-rule="evenodd" clip-rule="evenodd" d="M4.67063 9.74812C4.67005 9.7509 4.66992 9.75153 4.66992 9.75C4.66992 10.1642 4.33414 10.5 3.91992 10.5C3.50571 10.5 3.16992 10.1642 3.16992 9.75C3.16992 9.36435 3.33147 8.98961 3.51736 8.68827C3.71355 8.37023 3.98535 8.05505 4.30845 7.77607C4.94877 7.2232 5.86616 6.75 6.91992 6.75C7.97368 6.75 8.89107 7.2232 9.53139 7.77607C9.85449 8.05505 10.1263 8.37023 10.3225 8.68827C10.5084 8.98961 10.6699 9.36435 10.6699 9.75C10.6699 10.1642 10.3341 10.5 9.91992 10.5C9.50571 10.5 9.16992 10.1642 9.16992 9.75C9.16992 9.75153 9.16979 9.7509 9.16921 9.74812C9.16579 9.73159 9.14663 9.63918 9.04585 9.47579C8.93842 9.30165 8.77089 9.1012 8.55109 8.91143C8.10563 8.5268 7.52302 8.25 6.91992 8.25C6.31683 8.25 5.73422 8.5268 5.28875 8.91143C5.06896 9.1012 4.90142 9.30165 4.794 9.47579C4.69321 9.63918 4.67405 9.73159 4.67063 9.74812Z" fill="white"/>
</svg>
