<svg width="19" height="18" viewBox="0 0 19 18" fill="none" xmlns="http://www.w3.org/2000/svg">
<g clip-path="url(#clip0_39_1762)">
<path d="M5.33398 4.50024H17.334C17.5329 4.50024 17.7237 4.42122 17.8643 4.28057C18.005 4.13992 18.084 3.94915 18.084 3.75024C18.084 3.55133 18.005 3.36057 17.8643 3.21991C17.7237 3.07926 17.5329 3.00024 17.334 3.00024H5.33398C5.13507 3.00024 4.94431 3.07926 4.80365 3.21991C4.663 3.36057 4.58398 3.55133 4.58398 3.75024C4.58398 3.94915 4.663 4.13992 4.80365 4.28057C4.94431 4.42122 5.13507 4.50024 5.33398 4.50024Z" fill="white"/>
<path d="M17.334 8.24976H5.33398C5.13507 8.24976 4.94431 8.32877 4.80365 8.46943C4.663 8.61008 4.58398 8.80085 4.58398 8.99976C4.58398 9.19867 4.663 9.38944 4.80365 9.53009C4.94431 9.67075 5.13507 9.74976 5.33398 9.74976H17.334C17.5329 9.74976 17.7237 9.67075 17.8643 9.53009C18.005 9.38944 18.084 9.19867 18.084 8.99976C18.084 8.80085 18.005 8.61008 17.8643 8.46943C17.7237 8.32877 17.5329 8.24976 17.334 8.24976Z" fill="white"/>
<path d="M17.334 13.5H5.33398C5.13507 13.5 4.94431 13.579 4.80365 13.7197C4.663 13.8603 4.58398 14.0511 4.58398 14.25C4.58398 14.4489 4.663 14.6397 4.80365 14.7803C4.94431 14.921 5.13507 15 5.33398 15H17.334C17.5329 15 17.7237 14.921 17.8643 14.7803C18.005 14.6397 18.084 14.4489 18.084 14.25C18.084 14.0511 18.005 13.8603 17.8643 13.7197C17.7237 13.579 17.5329 13.5 17.334 13.5Z" fill="white"/>
<path d="M1.58398 5.24999C2.41241 5.24999 3.08398 4.57842 3.08398 3.75C3.08398 2.92157 2.41241 2.25 1.58398 2.25C0.755557 2.25 0.0839844 2.92157 0.0839844 3.75C0.0839844 4.57842 0.755557 5.24999 1.58398 5.24999Z" fill="white"/>
<path d="M1.58398 10.5002C2.41241 10.5002 3.08398 9.82867 3.08398 9.00024C3.08398 8.17182 2.41241 7.50024 1.58398 7.50024C0.755557 7.50024 0.0839844 8.17182 0.0839844 9.00024C0.0839844 9.82867 0.755557 10.5002 1.58398 10.5002Z" fill="white"/>
<path d="M1.58398 15.7498C2.41241 15.7498 3.08398 15.0782 3.08398 14.2498C3.08398 13.4213 2.41241 12.7498 1.58398 12.7498C0.755557 12.7498 0.0839844 13.4213 0.0839844 14.2498C0.0839844 15.0782 0.755557 15.7498 1.58398 15.7498Z" fill="white"/>
</g>
<defs>
<clipPath id="clip0_39_1762">
<rect width="18" height="18" fill="white" transform="translate(0.0839844)"/>
</clipPath>
</defs>
</svg>
