<svg width="19" height="18" viewBox="0 0 19 18" fill="none" xmlns="http://www.w3.org/2000/svg">
<g clip-path="url(#clip0_39_1760)">
<path d="M3.58457 4.5001C3.28889 4.50088 2.99598 4.44301 2.7228 4.32985C2.44963 4.21669 2.2016 4.05049 1.99307 3.84085L0.835072 2.81035C0.686485 2.67788 0.596609 2.4918 0.585216 2.29306C0.573823 2.09432 0.641847 1.89919 0.774322 1.7506C0.906798 1.60201 1.09287 1.51214 1.29162 1.50075C1.49036 1.48935 1.68548 1.55738 1.83407 1.68985L3.02282 2.75035C3.09087 2.82677 3.17385 2.88846 3.26663 2.93162C3.35941 2.97478 3.46005 2.99849 3.56234 3.0013C3.66463 3.00411 3.76642 2.98596 3.86143 2.94796C3.95644 2.90996 4.04268 2.85292 4.11482 2.78035L6.81782 0.207102C6.96317 0.0777048 7.15312 0.00986639 7.34755 0.0179154C7.54198 0.0259644 7.72568 0.109271 7.85983 0.250238C7.99398 0.391206 8.06809 0.578798 8.0665 0.773391C8.06492 0.967984 7.98776 1.15434 7.85132 1.2931L5.15957 3.8536C4.9524 4.05957 4.70667 4.22268 4.43642 4.33361C4.16617 4.44454 3.8767 4.50111 3.58457 4.5001ZM18.5846 3.0001C18.5846 2.80119 18.5056 2.61042 18.3649 2.46977C18.2243 2.32912 18.0335 2.2501 17.8346 2.2501H10.3346C10.1357 2.2501 9.94489 2.32912 9.80424 2.46977C9.66359 2.61042 9.58457 2.80119 9.58457 3.0001C9.58457 3.19901 9.66359 3.38978 9.80424 3.53043C9.94489 3.67108 10.1357 3.7501 10.3346 3.7501H17.8346C18.0335 3.7501 18.2243 3.67108 18.3649 3.53043C18.5056 3.38978 18.5846 3.19901 18.5846 3.0001ZM5.15957 9.8536L7.85132 7.2931C7.92645 7.22622 7.98736 7.1449 8.03042 7.054C8.07348 6.96309 8.09781 6.86445 8.10197 6.76395C8.10613 6.66345 8.09004 6.56314 8.05464 6.46898C8.01924 6.37483 7.96526 6.28876 7.89592 6.2159C7.82657 6.14303 7.74328 6.08486 7.651 6.04484C7.55871 6.00482 7.45932 5.98378 7.35873 5.98296C7.25815 5.98214 7.15843 6.00156 7.0655 6.04006C6.97258 6.07857 6.88834 6.13538 6.81782 6.2071L4.11782 8.78035C3.97505 8.91687 3.78512 8.99307 3.58757 8.99307C3.39003 8.99307 3.2001 8.91687 3.05732 8.78035L1.86482 7.5916C1.72337 7.45498 1.53392 7.37939 1.33727 7.3811C1.14062 7.3828 0.952514 7.46168 0.813458 7.60074C0.674402 7.73979 0.595525 7.9279 0.593817 8.12455C0.592108 8.3212 0.667704 8.51065 0.804322 8.6521L1.99307 9.84085C2.41283 10.2607 2.98151 10.4976 3.5752 10.5C4.16888 10.5024 4.73945 10.2701 5.16257 9.8536H5.15957ZM18.5846 9.0001C18.5846 8.80119 18.5056 8.61042 18.3649 8.46977C18.2243 8.32912 18.0335 8.2501 17.8346 8.2501H10.3346C10.1357 8.2501 9.94489 8.32912 9.80424 8.46977C9.66359 8.61042 9.58457 8.80119 9.58457 9.0001C9.58457 9.19901 9.66359 9.38978 9.80424 9.53043C9.94489 9.67108 10.1357 9.7501 10.3346 9.7501H17.8346C18.0335 9.7501 18.2243 9.67108 18.3649 9.53043C18.5056 9.38978 18.5846 9.19901 18.5846 9.0001ZM5.15957 15.8536L7.84832 13.2931C7.92345 13.2262 7.98436 13.1449 8.02742 13.054C8.07048 12.9631 8.09481 12.8645 8.09897 12.764C8.10313 12.6635 8.08704 12.5631 8.05164 12.469C8.01624 12.3748 7.96226 12.2888 7.89292 12.2159C7.82357 12.143 7.74028 12.0849 7.64799 12.0448C7.55571 12.0048 7.45632 11.9838 7.35573 11.983C7.25515 11.9821 7.15543 12.0016 7.0625 12.0401C6.96957 12.0786 6.88534 12.1354 6.81482 12.2071L4.11482 14.7804C4.04268 14.8529 3.95644 14.91 3.86143 14.948C3.76642 14.986 3.66463 15.0041 3.56234 15.0013C3.46005 14.9985 3.35941 14.9748 3.26663 14.9316C3.17385 14.8885 3.09087 14.8268 3.02282 14.7504L1.83407 13.6899C1.68548 13.5574 1.49036 13.4894 1.29162 13.5007C1.09287 13.5121 0.906798 13.602 0.774322 13.7506C0.641847 13.8992 0.573823 14.0943 0.585216 14.2931C0.596609 14.4918 0.686485 14.6779 0.835072 14.8104L1.99307 15.8409C2.41283 16.2607 2.98151 16.4976 3.5752 16.5C4.16888 16.5024 4.73945 16.2701 5.16257 15.8536H5.15957ZM18.5846 15.0001C18.5846 14.8012 18.5056 14.6104 18.3649 14.4698C18.2243 14.3291 18.0335 14.2501 17.8346 14.2501H10.3346C10.1357 14.2501 9.94489 14.3291 9.80424 14.4698C9.66359 14.6104 9.58457 14.8012 9.58457 15.0001C9.58457 15.199 9.66359 15.3898 9.80424 15.5304C9.94489 15.6711 10.1357 15.7501 10.3346 15.7501H17.8346C18.0335 15.7501 18.2243 15.6711 18.3649 15.5304C18.5056 15.3898 18.5846 15.199 18.5846 15.0001Z" fill="white"/>
</g>
<defs>
<clipPath id="clip0_39_1760">
<rect width="18" height="18" fill="white" transform="translate(0.583984)"/>
</clipPath>
</defs>
</svg>
