<svg width="22" height="20" viewBox="0 0 22 20" fill="none" xmlns="http://www.w3.org/2000/svg">
<path fill-rule="evenodd" clip-rule="evenodd" d="M6.16765 9.30531C6.12827 9.34654 6.08675 9.38702 6.04299 9.42665C5.54626 9.87648 4.84344 10.1389 3.918 10.2256V16.7075C3.918 17.4199 4.46463 17.9975 5.13893 17.9975H16.8599C17.5342 17.9975 18.0808 17.4199 18.0808 16.7075V10.2151C17.0856 10.0928 16.3946 9.71991 15.9312 9.23947C15.4396 9.82053 14.6466 10.2579 13.4413 10.2579C12.2577 10.2579 11.4718 9.83623 10.9783 9.27089C10.4861 9.82863 9.71289 10.2579 8.55753 10.2579C7.42605 10.2579 6.66107 9.8462 6.16765 9.30531ZM10.2868 7.38196L11.7122 7.41959C11.7319 7.41946 11.7319 7.41932 11.7319 7.41919L11.7319 7.41668L11.7319 7.41393L11.7319 7.41107C11.7321 7.41478 11.7325 7.42472 11.7338 7.43996C11.7364 7.47073 11.7422 7.52128 11.7547 7.58474C11.7802 7.71417 11.8305 7.88064 11.9258 8.04185C12.0878 8.31562 12.4546 8.71003 13.4413 8.71003C14.4279 8.71003 14.7947 8.31562 14.9567 8.04185C15.052 7.88064 15.1023 7.71417 15.1278 7.58474C15.1403 7.52128 15.1461 7.47073 15.1487 7.43996C15.15 7.42472 15.1504 7.41478 15.1506 7.41107L15.1506 7.41393L15.1506 7.41668L15.1506 7.41831C15.1506 7.41877 15.1506 7.42011 15.8831 7.42011C16.6157 7.42011 16.6157 7.41955 16.6157 7.419L16.6157 7.41793L16.6157 7.41592L16.6156 7.41239L16.6155 7.40731C16.6155 7.40478 16.6154 7.40393 16.6155 7.40464C16.6155 7.40608 16.6159 7.41361 16.6172 7.42634C16.6198 7.45205 16.6259 7.4971 16.6396 7.55488C16.6671 7.67129 16.723 7.82927 16.8354 7.98768C17.035 8.26875 17.527 8.71003 18.8133 8.71003H19.5459V16.7075C19.5459 18.2748 18.3433 19.5454 16.8599 19.5454H5.13893C3.65546 19.5454 2.45288 18.2748 2.45288 16.7075V8.71003H3.18544C4.33187 8.71003 4.85522 8.46356 5.08951 8.25139C5.29515 8.06517 5.38311 7.80833 5.38311 7.42011L6.82824 7.38196C6.84729 7.38084 6.84728 7.38071 6.84727 7.38058L6.84715 7.3782L6.84701 7.37562L6.84695 7.37391C6.84731 7.37819 6.8483 7.38876 6.85035 7.40471C6.85448 7.43686 6.86271 7.48924 6.87825 7.55488C6.90988 7.68855 6.96812 7.86182 7.07174 8.03025C7.25305 8.32495 7.63155 8.71003 8.55753 8.71003C9.48352 8.71003 9.86201 8.32495 10.0433 8.03025C10.1469 7.86182 10.2052 7.68855 10.2368 7.55488C10.2523 7.48924 10.2606 7.43686 10.2647 7.40471C10.2668 7.38876 10.2677 7.37819 10.2681 7.37391C10.2683 7.37179 10.2683 7.37127 10.2682 7.37248L10.268 7.37562L10.2679 7.3782L10.2678 7.37974C10.2678 7.37987 10.2678 7.38084 10.2868 7.38196ZM6.84695 7.37391C6.84683 7.37254 6.84678 7.37184 6.84678 7.37184L6.84695 7.37391Z" fill="#FD1966"/>
<path fill-rule="evenodd" clip-rule="evenodd" d="M8.31299 14.6438C8.31299 13.0765 9.51557 11.8059 10.999 11.8059C12.4825 11.8059 13.6851 13.0765 13.6851 14.6438V19.5455H8.31299V14.6438ZM10.999 13.3538C10.3247 13.3538 9.7781 13.9314 9.7781 14.6438V17.9976H12.22V14.6438C12.22 13.9314 11.6733 13.3538 10.999 13.3538Z" fill="#FD1966"/>
<path fill-rule="evenodd" clip-rule="evenodd" d="M0.5 3.29237C0.5 1.72508 1.70258 0.454544 3.18605 0.454544H6.84883V7.42011H6.11628C6.84883 7.42011 6.84884 7.41962 6.84883 7.42011L6.84883 7.4221L6.84882 7.4243L6.84879 7.42929L6.84861 7.44163C6.84843 7.4509 6.84813 7.46224 6.8476 7.47551C6.84656 7.50203 6.84464 7.53644 6.84116 7.57762C6.83422 7.65973 6.82092 7.77042 6.79528 7.90044C6.7445 8.15799 6.64212 8.50749 6.43225 8.86224C5.98374 9.62041 5.12964 10.2579 3.67442 10.2579C2.2192 10.2579 1.3651 9.62041 0.916582 8.86224C0.706718 8.50749 0.604337 8.15799 0.553552 7.90044C0.527912 7.77042 0.51461 7.65973 0.507672 7.57762C0.504191 7.53644 0.502277 7.50203 0.501231 7.47551C0.500708 7.46224 0.5004 7.4509 0.500223 7.44163L0.500045 7.42929L0.50001 7.4243L0.500002 7.4221C0.500002 7.42162 0.5 7.42011 1.23256 7.42011H0.5V3.29237ZM1.96512 7.41202C1.9653 7.41632 1.96579 7.42587 1.96698 7.43997C1.96958 7.47073 1.97536 7.52128 1.98787 7.58474C2.01339 7.71418 2.06363 7.88064 2.159 8.04186C2.32095 8.31562 2.68778 8.71003 3.67442 8.71003C4.66106 8.71003 5.02788 8.31562 5.18984 8.04186C5.2852 7.88064 5.33544 7.71418 5.36096 7.58474C5.37348 7.52128 5.37925 7.47073 5.38185 7.43997C5.38304 7.42588 5.38354 7.41632 5.38372 7.41202V2.00245H3.18605C2.51174 2.00245 1.96512 2.57997 1.96512 3.29237V7.41202Z" fill="#FD1966"/>
<path fill-rule="evenodd" clip-rule="evenodd" d="M5.38391 0.454544H11.7327V7.42011H11.0002C11.7327 7.42011 11.7327 7.41962 11.7327 7.42011L11.7327 7.4221L11.7327 7.4243L11.7327 7.42929L11.7325 7.44163C11.7323 7.4509 11.732 7.46224 11.7315 7.47551C11.7305 7.50203 11.7286 7.53644 11.7251 7.57762C11.7181 7.65973 11.7048 7.77042 11.6792 7.90044C11.6284 8.15799 11.526 8.50749 11.3162 8.86224C10.8677 9.62041 10.0135 10.2579 8.55833 10.2579C7.10311 10.2579 6.24901 9.62041 5.80049 8.86224C5.59063 8.50749 5.48825 8.15799 5.43746 7.90044C5.41182 7.77042 5.39852 7.65973 5.39158 7.57762C5.3881 7.53644 5.38619 7.50203 5.38514 7.47551C5.38462 7.46224 5.38431 7.4509 5.38413 7.44163L5.38396 7.42929L5.38392 7.4243L5.38391 7.4221C5.38391 7.42162 5.38391 7.42011 6.11647 7.42011H5.38391V0.454544ZM6.84903 7.41202C6.84921 7.41632 6.8497 7.42587 6.85089 7.43997C6.85349 7.47073 6.85927 7.52128 6.87178 7.58474C6.89731 7.71418 6.94754 7.88064 7.04291 8.04186C7.20486 8.31562 7.57169 8.71003 8.55833 8.71003C9.54497 8.71003 9.9118 8.31562 10.0737 8.04186C10.1691 7.88064 10.2194 7.71418 10.2449 7.58474C10.2574 7.52128 10.2632 7.47073 10.2658 7.43997C10.267 7.42588 10.2674 7.41632 10.2676 7.41202V2.00245H6.84903V7.41202Z" fill="#FD1966"/>
<path fill-rule="evenodd" clip-rule="evenodd" d="M10.2673 0.454544H16.6162V7.42011H15.8836C16.6162 7.42011 16.6162 7.41962 16.6162 7.42011L16.6162 7.4221L16.6162 7.4243L16.6161 7.42929L16.6159 7.44163C16.6158 7.4509 16.6155 7.46224 16.6149 7.47551C16.6139 7.50203 16.612 7.53644 16.6085 7.57762C16.6016 7.65973 16.5883 7.77042 16.5626 7.90044C16.5118 8.15799 16.4095 8.50749 16.1996 8.86224C15.7511 9.62041 14.897 10.2579 13.4418 10.2579C11.9865 10.2579 11.1324 9.62041 10.6839 8.86224C10.4741 8.50749 10.3717 8.15799 10.3209 7.90044C10.2952 7.77042 10.2819 7.65973 10.275 7.57762C10.2715 7.53644 10.2696 7.50203 10.2686 7.47551C10.268 7.46224 10.2677 7.4509 10.2676 7.44163L10.2674 7.42929L10.2673 7.4243L10.2673 7.4221C10.2673 7.42162 10.2673 7.42011 10.9999 7.42011H10.2673V0.454544ZM11.7324 7.41202C11.7326 7.41632 11.7331 7.42587 11.7343 7.43997C11.7369 7.47073 11.7427 7.52128 11.7552 7.58474C11.7807 7.71418 11.831 7.88064 11.9263 8.04186C12.0883 8.31562 12.4551 8.71003 13.4418 8.71003C14.4284 8.71003 14.7952 8.31562 14.9572 8.04186C15.0525 7.88064 15.1028 7.71418 15.1283 7.58474C15.1408 7.52128 15.1466 7.47073 15.1492 7.43997C15.1504 7.42588 15.1509 7.41632 15.1511 7.41202V2.00245H11.7324V7.41202Z" fill="#FD1966"/>
<path fill-rule="evenodd" clip-rule="evenodd" d="M15.1512 0.454544H18.814C20.2975 0.454544 21.5001 1.72508 21.5001 3.29237V7.42011H20.7675C21.5001 7.42011 21.5001 7.41962 21.5001 7.42011L21.5001 7.4221L21.5001 7.4243L21.5 7.42929L21.4999 7.44163C21.4997 7.4509 21.4994 7.46224 21.4988 7.47551C21.4978 7.50203 21.4959 7.53644 21.4924 7.57762C21.4855 7.65973 21.4722 7.77042 21.4465 7.90044C21.3957 8.15799 21.2934 8.50749 21.0835 8.86224C20.635 9.62041 19.7809 10.2579 18.3257 10.2579C16.8704 10.2579 16.0163 9.62041 15.5678 8.86224C15.358 8.50749 15.2556 8.15799 15.2048 7.90044C15.1792 7.77042 15.1659 7.65973 15.1589 7.57762C15.1554 7.53644 15.1535 7.50203 15.1525 7.47551C15.152 7.46224 15.1516 7.4509 15.1515 7.44163L15.1513 7.42929L15.1513 7.4243L15.1512 7.4221C15.1512 7.42162 15.1512 7.42011 15.8838 7.42011H15.1512V0.454544ZM16.6164 7.41202C16.6165 7.41632 16.617 7.42587 16.6182 7.43997C16.6208 7.47073 16.6266 7.52128 16.6391 7.58474C16.6646 7.71418 16.7149 7.88064 16.8102 8.04186C16.9722 8.31562 17.339 8.71003 18.3257 8.71003C19.3123 8.71003 19.6791 8.31562 19.8411 8.04186C19.9364 7.88064 19.9867 7.71418 20.0122 7.58474C20.0247 7.52128 20.0305 7.47073 20.0331 7.43997C20.0343 7.42588 20.0348 7.41632 20.035 7.41202V3.29237C20.035 2.57997 19.4883 2.00245 18.814 2.00245H16.6164V7.41202Z" fill="#FD1966"/>
</svg>
