<?xml version="1.0" encoding="UTF-8"?> <svg xmlns="http://www.w3.org/2000/svg" width="221" height="221" viewBox="0 0 221 221" fill="none"> <path fill-rule="evenodd" clip-rule="evenodd" d="M110.5 0C88.6452 0 67.2812 6.48058 49.1096 18.6225C30.938 30.7644 16.7747 48.0221 8.41123 68.2133C0.0477502 88.4046 -2.14035 110.623 2.12332 132.058C6.38699 153.492 16.9111 173.182 32.3648 188.636C47.8185 204.089 67.5076 214.613 88.9425 218.877C110.377 223.14 132.595 220.952 152.786 212.589C172.978 204.225 190.236 190.062 202.378 171.89C214.519 153.719 221 132.355 221 110.5C220.967 81.2038 209.314 53.1168 188.598 32.4013C167.883 11.6857 139.796 0.0332345 110.5 0V0ZM172.4 37.9218L147.718 62.6333C147.606 62.7395 147.505 62.8577 147.417 62.9852C136.888 54.7162 123.888 50.2211 110.5 50.2211C97.1122 50.2211 84.1121 54.7162 73.5831 62.9852C73.4954 62.8577 73.3944 62.7395 73.2818 62.6333L48.6001 37.9218C65.8518 23.1726 87.8029 15.0676 110.5 15.0676C133.197 15.0676 155.148 23.1726 172.4 37.9218V37.9218ZM110.5 155.705C101.559 155.705 92.8196 153.054 85.3858 148.086C77.9519 143.119 72.1578 136.059 68.7364 127.799C65.3149 119.539 64.4198 110.45 66.164 101.681C67.9082 92.912 72.2137 84.8573 78.5356 78.5353C84.8576 72.2133 92.9123 67.9085 101.681 66.1643C110.45 64.42 119.539 65.3149 127.799 68.7363C136.059 72.1577 143.119 77.9519 148.086 85.3858C153.053 92.8196 155.705 101.559 155.705 110.5C155.705 122.489 150.942 133.987 142.464 142.465C133.987 150.942 122.489 155.705 110.5 155.705V155.705ZM15.0682 110.5C15.0511 87.8015 23.1678 65.8483 37.9467 48.6203L62.6235 73.2814L62.9598 73.5831C54.71 84.1204 50.2276 97.1173 50.2276 110.5C50.2276 123.883 54.71 136.88 62.9598 147.417L62.6235 147.719L37.9467 172.38C23.1678 155.152 15.0511 133.199 15.0682 110.5V110.5ZM48.6001 183.078L73.2818 158.367C73.3944 158.261 73.4954 158.142 73.5831 158.015C84.1121 166.284 97.1122 170.779 110.5 170.779C123.888 170.779 136.888 166.284 147.417 158.015C147.505 158.142 147.606 158.261 147.718 158.367L172.4 183.078C155.148 197.827 133.197 205.932 110.5 205.932C87.8029 205.932 65.8518 197.827 48.6001 183.078V183.078ZM183.053 172.38L158.377 147.719L158.04 147.417C166.29 136.88 170.772 123.883 170.772 110.5C170.772 97.1173 166.29 84.1204 158.04 73.5831L158.377 73.2814L183.053 48.6203C197.817 65.8574 205.931 87.8046 205.931 110.5C205.931 133.195 197.817 155.143 183.053 172.38V172.38Z" fill="#32435F"></path> </svg> 