<svg width="17" height="18" viewBox="0 0 17 18" fill="none" xmlns="http://www.w3.org/2000/svg">
<path fill-rule="evenodd" clip-rule="evenodd" d="M14.0004 1.5H3.63672C2.80829 1.5 2.13672 2.17157 2.13672 3V15C2.13672 15.8284 2.80829 16.5 3.63672 16.5H14.0004C14.8288 16.5 15.5004 15.8284 15.5004 15V3C15.5004 2.17157 14.8288 1.5 14.0004 1.5ZM3.63672 0C1.97986 0 0.636719 1.34315 0.636719 3V15C0.636719 16.6569 1.97986 18 3.63672 18H14.0004C15.6572 18 17.0004 16.6569 17.0004 15V3C17.0004 1.34315 15.6572 0 14.0004 0H3.63672Z" fill="white"/>
<path fill-rule="evenodd" clip-rule="evenodd" d="M0.705078 9C0.705078 8.58579 1.04086 8.25 1.45508 8.25H16.1824C16.5966 8.25 16.9324 8.58579 16.9324 9C16.9324 9.41421 16.5966 9.75 16.1824 9.75H1.45508C1.04086 9.75 0.705078 9.41421 0.705078 9Z" fill="white"/>
<path fill-rule="evenodd" clip-rule="evenodd" d="M0.705078 4.90912C0.705078 4.49491 1.04086 4.15912 1.45508 4.15912H4.72781C5.14202 4.15912 5.47781 4.49491 5.47781 4.90912C5.47781 5.32333 5.14202 5.65912 4.72781 5.65912H1.45508C1.04086 5.65912 0.705078 5.32333 0.705078 4.90912Z" fill="white"/>
<path fill-rule="evenodd" clip-rule="evenodd" d="M0.705078 13.0909C0.705078 12.6767 1.04086 12.3409 1.45508 12.3409H4.72781C5.14202 12.3409 5.47781 12.6767 5.47781 13.0909C5.47781 13.5051 5.14202 13.8409 4.72781 13.8409H1.45508C1.04086 13.8409 0.705078 13.5051 0.705078 13.0909Z" fill="white"/>
<path fill-rule="evenodd" clip-rule="evenodd" d="M12.1602 4.90912C12.1602 4.49491 12.4959 4.15912 12.9102 4.15912H16.1829C16.5971 4.15912 16.9329 4.49491 16.9329 4.90912C16.9329 5.32333 16.5971 5.65912 16.1829 5.65912H12.9102C12.4959 5.65912 12.1602 5.32333 12.1602 4.90912Z" fill="white"/>
<path fill-rule="evenodd" clip-rule="evenodd" d="M12.1602 13.0909C12.1602 12.6767 12.4959 12.3409 12.9102 12.3409H16.1829C16.5971 12.3409 16.9329 12.6767 16.9329 13.0909C16.9329 13.5051 16.5971 13.8409 16.1829 13.8409H12.9102C12.4959 13.8409 12.1602 13.5051 12.1602 13.0909Z" fill="white"/>
<path fill-rule="evenodd" clip-rule="evenodd" d="M12.5 0.0681763C12.9142 0.0681763 13.25 0.403963 13.25 0.818176V17.1818C13.25 17.596 12.9142 17.9318 12.5 17.9318C12.0858 17.9318 11.75 17.596 11.75 17.1818V0.818176C11.75 0.403963 12.0858 0.0681763 12.5 0.0681763Z" fill="white"/>
<path fill-rule="evenodd" clip-rule="evenodd" d="M5.13672 0.0681763C5.55093 0.0681763 5.88672 0.403963 5.88672 0.818176V17.1818C5.88672 17.596 5.55093 17.9318 5.13672 17.9318C4.72251 17.9318 4.38672 17.596 4.38672 17.1818V0.818176C4.38672 0.403963 4.72251 0.0681763 5.13672 0.0681763Z" fill="white"/>
</svg>
