<svg width="30" height="20" viewBox="0 0 30 20" fill="none" xmlns="http://www.w3.org/2000/svg">
<path d="M28.483 3.23534C28.1589 2.03045 27.2089 1.08065 26.0042 0.75621C23.8033 0.154022 14.9997 0.154022 14.9997 0.154022C14.9997 0.154022 6.19635 0.154022 3.99548 0.733379C2.81393 1.05748 1.84078 2.03062 1.51669 3.23534C0.9375 5.43604 0.9375 10 0.9375 10C0.9375 10 0.9375 14.587 1.51669 16.7647C1.84113 17.9694 2.79076 18.9192 3.99565 19.2436C6.21952 19.846 15 19.846 15 19.846C15 19.846 23.8033 19.846 26.0042 19.2666C27.2091 18.9424 28.1589 17.9926 28.4833 16.7878C29.0623 14.587 29.0623 10.0232 29.0623 10.0232C29.0623 10.0232 29.0855 5.43604 28.483 3.23534ZM12.1968 14.2163V5.78366L19.5174 10L12.1968 14.2163Z" fill="#E84D4D"/>
</svg>
