<svg width="24" height="24" viewBox="0 0 24 24" fill="none" xmlns="http://www.w3.org/2000/svg">
<path d="M23.4498 9.59979C23.2623 9.41232 23.0079 9.307 22.7428 9.307C22.4776 9.307 22.2233 9.41232 22.0358 9.59979L11.1438 20.5388C10.6795 21.0031 10.1283 21.3715 9.52164 21.6228C8.91499 21.8742 8.26478 22.0035 7.60813 22.0036C6.28197 22.0037 5.01008 21.477 4.07228 20.5393C3.13447 19.6016 2.60757 18.3298 2.60747 17.0036C2.60738 15.6775 3.13411 14.4056 4.07178 13.4678L14.6208 2.87579C15.1849 2.32068 15.9455 2.01096 16.7369 2.01409C17.5283 2.01722 18.2864 2.33294 18.8461 2.89249C19.4058 3.45204 19.7217 4.21009 19.725 5.0015C19.7283 5.79291 19.4188 6.55357 18.8638 7.11779L8.31478 17.7098C8.12453 17.892 7.87124 17.9938 7.60778 17.9938C7.34431 17.9938 7.09103 17.892 6.90078 17.7098C6.71331 17.5223 6.60799 17.268 6.60799 17.0028C6.60799 16.7376 6.71331 16.4833 6.90078 16.2958L16.2928 6.86079C16.4749 6.67219 16.5757 6.41958 16.5735 6.15739C16.5712 5.89519 16.466 5.64438 16.2806 5.45897C16.0952 5.27356 15.8444 5.16839 15.5822 5.16611C15.32 5.16384 15.0674 5.26463 14.8788 5.44679L5.48678 14.8818C5.20815 15.1604 4.98713 15.4911 4.83633 15.8551C4.68553 16.2191 4.60792 16.6093 4.60792 17.0033C4.60792 17.3973 4.68553 17.7874 4.83633 18.1515C4.98713 18.5155 5.20815 18.8462 5.48678 19.1248C6.0584 19.6703 6.81816 19.9746 7.60828 19.9746C8.3984 19.9746 9.15816 19.6703 9.72978 19.1248L20.2778 8.53179C21.1958 7.59009 21.7058 6.32464 21.6974 5.00956C21.689 3.69448 21.1627 2.43567 20.2328 1.50581C19.3028 0.575956 18.0439 0.0499337 16.7288 0.0416937C15.4137 0.0334538 14.1483 0.54366 13.2068 1.46179L2.65778 12.0538C1.34496 13.3666 0.607422 15.1472 0.607422 17.0038C0.607422 18.8604 1.34496 20.641 2.65778 21.9538C3.9706 23.2666 5.75117 24.0041 7.60778 24.0041C9.46439 24.0041 11.245 23.2666 12.5578 21.9538L23.4498 11.0178C23.5432 10.9249 23.6173 10.8144 23.6679 10.6927C23.7185 10.571 23.7446 10.4406 23.7446 10.3088C23.7446 10.177 23.7185 10.0465 23.6679 9.92487C23.6173 9.80319 23.5432 9.69272 23.4498 9.59979V9.59979Z" fill="#FD1966"/>
</svg>
