<svg width="142" height="6" viewBox="0 0 142 6" fill="none" xmlns="http://www.w3.org/2000/svg">
<path d="M1 3.4759C3.7283 5.50803 7.60504 5.50803 10.3333 3.4759C13.0616 1.44377 16.9384 1.44377 19.6667 3.4759C22.395 5.50803 26.2717 5.50803 29 3.4759C31.727 1.44476 35.6064 1.44476 38.3333 3.4759C41.0616 5.50803 44.9384 5.50803 47.6667 3.4759C50.395 1.44377 54.2717 1.44377 57 3.4759C59.7283 5.50803 63.605 5.50803 66.3333 3.4759V3.4759C69.0837 1.42736 72.8901 1.37014 75.6667 3.38293V3.38293C78.395 5.3607 82.2717 5.3607 85 3.38293C87.7283 1.40515 91.605 1.40515 94.3333 3.38293C97.0616 5.3607 100.938 5.3607 103.667 3.38293L103.746 3.32526C106.444 1.36983 110.223 1.36983 112.92 3.32526L113 3.38293C115.728 5.3607 119.605 5.3607 122.333 3.38293C125.062 1.40515 128.938 1.40515 131.667 3.38293C134.395 5.3607 138.272 5.3607 141 3.38293" stroke="#FD1966" stroke-width="2" stroke-linecap="round"/>
</svg>
