<svg width="1548" height="1469" viewBox="0 0 1548 1469" fill="none" xmlns="http://www.w3.org/2000/svg">
<g opacity="0.1">
<path d="M485.049 983.601C296.541 795.092 192.833 544.582 192.833 277.946C192.833 11.3093 296.541 -239.201 485.049 -427.709L491.444 -421.314C304.604 -234.474 201.73 13.8117 201.73 277.946C201.73 542.08 304.604 790.366 491.444 977.206C678.284 1164.05 926.57 1266.92 1190.7 1266.92C1454.84 1266.92 1703.12 1164.05 1889.96 977.206C2076.8 790.366 2179.68 542.08 2179.68 277.946C2179.68 13.8117 2076.8 -234.474 1889.96 -421.314L1896.36 -427.709C2084.87 -239.201 2188.57 11.3093 2188.57 277.946C2188.57 544.582 2084.87 795.092 1896.36 983.601C1707.85 1172.11 1457.34 1275.82 1190.7 1275.82C924.068 1275.82 673.557 1172.11 485.049 983.601Z" fill="url(#paint0_linear_14_32)"/>
<path d="M427.217 1042.82C344.363 959.968 274.854 863.211 221.749 755.333C94.1304 496.482 75.2239 203.432 168.088 -69.8771L183.658 -64.5945C92.1841 204.544 111.091 492.867 236.485 747.826C362.157 1002.79 579.303 1193.52 848.442 1284.99L843.159 1300.56C683.845 1246.62 542.602 1158.49 427.217 1042.82Z" fill="url(#paint1_linear_14_32)"/>
<path d="M533.983 934.944C358.543 759.504 261.786 526.232 261.786 277.946C261.786 -234.196 678.562 -650.972 1190.7 -650.972V-646.524C681.064 -646.524 266.235 -231.694 266.235 277.946C266.235 524.841 362.435 757.001 537.042 931.608C711.648 1106.21 943.808 1202.41 1190.7 1202.41C1700.34 1202.41 2115.17 787.585 2115.17 277.946H2119.62C2119.62 790.088 1702.85 1206.86 1190.7 1206.86C942.696 1206.86 709.424 1110.39 533.983 934.944Z" fill="url(#paint2_linear_14_32)"/>
<path d="M626.569 842.358C480.044 695.834 399.414 500.93 399.414 293.794C399.414 -134.103 747.515 -482.204 1175.41 -482.204V-471.639C753.075 -471.639 409.701 -128.543 409.701 293.516C409.701 497.872 489.219 690.273 633.798 834.573C778.377 979.152 970.499 1058.67 1174.86 1058.67C1596.91 1058.67 1940.29 715.296 1940.29 293.238H1950.85C1950.85 721.135 1602.75 1069.24 1174.86 1069.24C967.997 1069.51 773.094 988.883 626.569 842.358Z" fill="url(#paint3_linear_14_32)"/>
<path d="M512.574 956.075C331.573 775.074 231.758 534.017 231.758 277.946H308.774C308.774 513.442 400.526 735.037 567.069 901.58C733.613 1068.12 955.208 1159.88 1190.7 1159.88C1426.2 1159.88 1647.79 1068.12 1814.34 901.58C1980.88 735.037 2072.63 513.442 2072.63 277.946C2072.63 42.4494 1980.88 -179.145 1814.34 -345.689C1647.79 -512.232 1426.2 -603.984 1190.7 -603.984V-681C1446.77 -681 1687.55 -581.185 1868.83 -400.184C2049.83 -219.182 2149.65 21.8748 2149.65 277.946C2149.65 806.77 1719.53 1236.89 1190.7 1236.89C934.633 1236.89 693.854 1137.08 512.574 956.075Z" fill="url(#paint4_linear_14_32)"/>
<path d="M349.057 8.32047C455.284 -325.117 754.958 -577.944 1124.65 -606.253L1129.95 -535.442C682.615 -501.124 346.494 -109.283 380.94 338.3C397.51 555.074 497.507 752.207 662.67 893.755C827.833 1035.3 1037.91 1103.88 1254.68 1087.31C1471.46 1070.74 1668.59 970.743 1810.14 805.581C1951.69 640.418 2020.51 430.215 2003.69 213.568L2074.5 208.271C2092.69 443.925 2017.77 672.614 1864.1 851.866C1710.18 1031.25 1495.76 1140.18 1259.98 1158.12C1024.32 1176.31 795.636 1101.39 616.384 947.72C437.005 793.801 328.072 579.378 310.13 343.597C301.111 226.826 315.518 113.597 349.057 8.32047Z" fill="url(#paint5_linear_14_32)"/>
<path d="M604.048 861.265L616.004 849.309C931.853 1165.16 1446.22 1165.16 1762.07 849.309C2077.92 533.461 2077.92 19.0943 1762.07 -296.754C1597.19 -461.63 1368.92 -547.543 1135.93 -532.251L1134.82 -549.211C1372.54 -564.781 1605.53 -477.2 1774.02 -308.71C2096.54 13.8117 2096.54 538.743 1774.02 861.265C1451.5 1183.79 926.848 1183.79 604.048 861.265Z" fill="url(#paint6_linear_14_32)"/>
</g>
<path d="M1209.33 868.494C907.107 868.494 661.323 622.71 661.323 320.485C661.323 18.2601 907.107 -227.524 1209.33 -227.524C1511.56 -227.524 1757.34 18.2601 1757.34 320.485C1757.62 622.71 1511.56 868.494 1209.33 868.494ZM1209.33 -222.241C910.166 -222.241 666.606 21.3185 666.606 320.485C666.606 619.652 910.166 863.211 1209.33 863.211C1508.5 863.211 1752.06 619.652 1752.06 320.485C1752.34 21.3185 1508.78 -222.241 1209.33 -222.241Z" fill="url(#paint7_linear_14_32)"/>
<path d="M1209.33 960.802C1038.34 960.802 877.636 894.073 756.69 773.406C635.744 652.46 569.294 491.755 569.294 320.763H575.133C575.133 490.087 641.027 649.402 760.861 769.235C880.694 889.068 1040.01 954.963 1209.33 954.963C1378.66 954.963 1537.97 889.068 1657.8 769.235C1777.64 649.402 1843.53 490.087 1843.53 320.763C1843.53 151.439 1777.64 -7.87525 1657.8 -127.709C1537.97 -247.542 1378.66 -313.437 1209.33 -313.437V-319.275C1380.32 -319.275 1541.03 -252.547 1661.97 -131.879C1782.92 -10.9336 1849.37 149.771 1849.37 320.763C1849.37 491.755 1782.64 652.46 1661.97 773.406C1541.31 894.073 1380.32 960.802 1209.33 960.802Z" fill="white" fill-opacity="0.15"/>
<path d="M1527.41 965.806L1499.32 908.809C1656.41 831.515 1774.02 697.502 1830.46 531.514C1886.91 365.527 1875.23 187.584 1797.93 30.4938C1720.64 -126.596 1586.63 -244.206 1420.64 -300.647C1254.65 -357.088 1076.71 -345.411 919.619 -268.117L891.537 -325.114C1063.92 -409.915 1259.1 -422.705 1440.94 -360.981C1622.77 -299.257 1769.85 -170.248 1854.93 2.41215C1939.73 174.794 1952.52 369.976 1890.8 551.811C1828.8 733.925 1699.79 881.005 1527.41 965.806Z" fill="#FD1966"/>
<path d="M1210.17 1013.91C1135.1 1013.91 1059.75 1001.67 986.625 976.65C811.463 917.15 669.664 792.868 587.922 626.881L597.375 622.154C678.005 785.639 817.301 907.975 989.962 966.641C1162.62 1025.31 1347.52 1013.35 1511.28 932.72L1516.01 942.173C1418.97 989.718 1314.71 1013.91 1210.17 1013.91Z" fill="white" fill-opacity="0.15"/>
<path d="M1209.33 832.349C1076.43 832.349 951.315 780.635 857.339 686.658C663.27 492.589 663.27 176.741 857.339 -17.3284L862.065 -12.6018C670.777 178.687 670.777 490.365 862.065 681.654C954.929 774.518 1078.1 825.398 1209.33 825.398C1340.57 825.398 1463.74 774.24 1556.6 681.654C1747.89 490.365 1747.89 178.687 1556.6 -12.6018L1561.33 -17.3284C1755.39 176.741 1755.39 492.589 1561.33 686.658C1467.35 780.635 1342.51 832.349 1209.33 832.349Z" fill="#FD1966"/>
<path d="M1209.33 935.779C1045.01 935.779 890.425 871.83 774.484 755.611L809.516 720.579C916.282 827.345 1058.36 886.288 1209.61 886.288C1360.58 886.288 1502.66 827.345 1609.7 720.579C1716.47 613.813 1775.41 471.737 1775.41 320.485C1775.41 169.512 1716.47 27.4354 1609.7 -79.6085C1502.94 -186.374 1360.86 -245.318 1209.61 -245.318C1058.64 -245.318 916.56 -186.374 809.516 -79.6085L774.484 -114.641C890.703 -230.86 1045.01 -294.808 1209.33 -294.808C1373.65 -294.808 1528.24 -230.86 1644.18 -114.641C1884.13 125.304 1884.13 515.388 1644.18 755.333C1528.24 871.552 1373.65 935.779 1209.33 935.779Z" fill="#6148A9" fill-opacity="0.5"/>
<path d="M1210.17 888.234C985.791 888.234 772.816 754.221 683.288 533.739L725.55 516.5C833.706 783.137 1138.71 912.423 1405.35 804.267C1534.63 751.997 1635.56 652.46 1690.06 524.007C1744.27 395.555 1745.39 253.756 1693.11 124.47C1640.84 -4.81686 1541.31 -105.744 1412.85 -160.239C1284.4 -214.456 1142.6 -215.568 1013.32 -163.297L996.079 -205.559C1136.49 -262.556 1290.8 -261.444 1430.37 -202.222C1569.94 -143.001 1678.38 -33.1765 1735.1 107.232C1792.1 247.64 1790.98 401.95 1731.76 541.524C1672.54 681.098 1562.72 789.532 1422.31 846.251C1353.08 874.889 1281.07 888.234 1210.17 888.234Z" fill="#6148A9"/>
<path d="M1207.94 851.256V840.412C1494.6 840.412 1727.87 607.14 1727.87 320.485C1727.87 33.8302 1494.6 -199.442 1207.94 -199.442C1058.36 -199.442 915.727 -134.938 817.024 -22.333L808.961 -29.562C909.888 -144.391 1055.3 -210.285 1207.94 -210.285C1500.71 -210.285 1738.71 27.7134 1738.71 320.485C1738.71 613.257 1500.71 851.256 1207.94 851.256Z" fill="white"/>
<path d="M1208.78 913.536C1132.59 913.536 1055.02 898.8 980.509 867.66L982.455 862.655C1127.31 923.267 1286.9 923.823 1432.32 864.323C1577.73 804.824 1690.89 692.219 1751.5 547.362L1756.51 549.309C1661.42 776.464 1440.66 913.536 1208.78 913.536Z" fill="white" fill-opacity="0.5"/>
<path d="M1795.43 320.485H1756.51C1756.51 18.8162 1511 -226.689 1209.33 -226.689V-265.614C1532.69 -265.614 1795.43 -2.59255 1795.43 320.485Z" fill="url(#paint8_linear_14_32)"/>
<path d="M823.59 147.961C852.598 84.7523 895.172 30.7974 947.979 -11.4584L919.173 -43.2814C862.336 2.74432 816.445 61.6623 784.643 130.169C759.693 184.019 745.294 241.215 740.937 298.627L783.782 300.614C787.863 248.484 801.127 196.761 823.59 147.961Z" fill="url(#paint9_linear_14_32)"/>
<defs>
<linearGradient id="paint0_linear_14_32" x1="485.1" y1="-427.707" x2="1896.43" y2="983.625" gradientUnits="userSpaceOnUse">
<stop stop-color="#AA9FF3"/>
<stop offset="0.0753004" stop-color="#8F7ED7"/>
<stop offset="0.2127" stop-color="#6148A9"/>
<stop offset="0.3316" stop-color="#412188"/>
<stop offset="0.426" stop-color="#2C0974"/>
<stop offset="0.4841" stop-color="#25006C"/>
<stop offset="0.6187" stop-color="#200065"/>
<stop offset="0.8137" stop-color="#120052"/>
<stop offset="1" stop-color="#000039"/>
</linearGradient>
<linearGradient id="paint1_linear_14_32" x1="-42.818" y1="141.055" x2="979.992" y2="1163.87" gradientUnits="userSpaceOnUse">
<stop stop-color="#AA9FF3"/>
<stop offset="0.0753004" stop-color="#8F7ED7"/>
<stop offset="0.2127" stop-color="#6148A9"/>
<stop offset="0.3316" stop-color="#412188"/>
<stop offset="0.426" stop-color="#2C0974"/>
<stop offset="0.4841" stop-color="#25006C"/>
<stop offset="0.6187" stop-color="#200065"/>
<stop offset="0.8137" stop-color="#120052"/>
<stop offset="1" stop-color="#000039"/>
</linearGradient>
<linearGradient id="paint2_linear_14_32" x1="437.959" y1="-282.439" x2="1751.17" y2="1030.77" gradientUnits="userSpaceOnUse">
<stop stop-color="#AA9FF3"/>
<stop offset="0.0753004" stop-color="#8F7ED7"/>
<stop offset="0.2127" stop-color="#6148A9"/>
<stop offset="0.3316" stop-color="#412188"/>
<stop offset="0.426" stop-color="#2C0974"/>
<stop offset="0.4841" stop-color="#25006C"/>
<stop offset="0.6187" stop-color="#200065"/>
<stop offset="0.8137" stop-color="#120052"/>
<stop offset="1" stop-color="#000039"/>
</linearGradient>
<linearGradient id="paint3_linear_14_32" x1="546.392" y1="-174.48" x2="1643.21" y2="922.337" gradientUnits="userSpaceOnUse">
<stop stop-color="#AA9FF3"/>
<stop offset="0.0753004" stop-color="#8F7ED7"/>
<stop offset="0.2127" stop-color="#6148A9"/>
<stop offset="0.3316" stop-color="#412188"/>
<stop offset="0.426" stop-color="#2C0974"/>
<stop offset="0.4841" stop-color="#25006C"/>
<stop offset="0.6187" stop-color="#200065"/>
<stop offset="0.8137" stop-color="#120052"/>
<stop offset="1" stop-color="#000039"/>
</linearGradient>
<linearGradient id="paint4_linear_14_32" x1="711.306" y1="-201.499" x2="1868.51" y2="955.704" gradientUnits="userSpaceOnUse">
<stop stop-color="#AA9FF3"/>
<stop offset="0.0753004" stop-color="#8F7ED7"/>
<stop offset="0.2127" stop-color="#6148A9"/>
<stop offset="0.3316" stop-color="#412188"/>
<stop offset="0.426" stop-color="#2C0974"/>
<stop offset="0.4841" stop-color="#25006C"/>
<stop offset="0.6187" stop-color="#200065"/>
<stop offset="0.8137" stop-color="#120052"/>
<stop offset="1" stop-color="#000039"/>
</linearGradient>
<linearGradient id="paint5_linear_14_32" x1="1441.53" y1="-505.463" x2="923.88" y2="1119.41" gradientUnits="userSpaceOnUse">
<stop stop-color="#AA9FF3"/>
<stop offset="0.0753004" stop-color="#8F7ED7"/>
<stop offset="0.2127" stop-color="#6148A9"/>
<stop offset="0.3316" stop-color="#412188"/>
<stop offset="0.426" stop-color="#2C0974"/>
<stop offset="0.4841" stop-color="#25006C"/>
<stop offset="0.6187" stop-color="#200065"/>
<stop offset="0.8137" stop-color="#120052"/>
<stop offset="1" stop-color="#000039"/>
</linearGradient>
<linearGradient id="paint6_linear_14_32" x1="749.283" y1="-163.521" x2="1774.14" y2="861.339" gradientUnits="userSpaceOnUse">
<stop stop-color="#AA9FF3"/>
<stop offset="0.0753004" stop-color="#8F7ED7"/>
<stop offset="0.2127" stop-color="#6148A9"/>
<stop offset="0.3316" stop-color="#412188"/>
<stop offset="0.426" stop-color="#2C0974"/>
<stop offset="0.4841" stop-color="#25006C"/>
<stop offset="0.6187" stop-color="#200065"/>
<stop offset="0.8137" stop-color="#120052"/>
<stop offset="1" stop-color="#000039"/>
</linearGradient>
<linearGradient id="paint7_linear_14_32" x1="661.365" y1="320.51" x2="1757.52" y2="320.51" gradientUnits="userSpaceOnUse">
<stop stop-color="#3AAF8C" stop-opacity="0"/>
<stop offset="0.8402" stop-color="#3AAF8C"/>
</linearGradient>
<linearGradient id="paint8_linear_14_32" x1="1209.44" y1="27.4971" x2="1795.47" y2="27.4971" gradientUnits="userSpaceOnUse">
<stop stop-color="#AA9FF3"/>
<stop offset="0.0753004" stop-color="#8F7ED7"/>
<stop offset="0.2127" stop-color="#6148A9"/>
<stop offset="0.3316" stop-color="#412188"/>
<stop offset="0.426" stop-color="#2C0974"/>
<stop offset="0.4841" stop-color="#25006C"/>
<stop offset="0.6187" stop-color="#200065"/>
<stop offset="0.8137" stop-color="#120052"/>
<stop offset="1" stop-color="#000039"/>
</linearGradient>
<linearGradient id="paint9_linear_14_32" x1="742.17" y1="278.59" x2="923.455" y2="-9.88014" gradientUnits="userSpaceOnUse">
<stop offset="0.2749" stop-color="#AA9FF3" stop-opacity="0"/>
<stop offset="0.6026" stop-color="#C2BBF6" stop-opacity="0.3247"/>
<stop offset="1" stop-color="#DCD8FA" stop-opacity="0.7185"/>
</linearGradient>
</defs>
</svg>
