<svg width="76" height="76" viewBox="0 0 76 76" fill="none" xmlns="http://www.w3.org/2000/svg">
<g clip-path="url(#clip0_28_760)">
<path d="M41.125 3.625V9.875C41.125 10.7038 40.7958 11.4987 40.2097 12.0847C39.6237 12.6708 38.8288 13 38 13C37.1712 13 36.3763 12.6708 35.7903 12.0847C35.2042 11.4987 34.875 10.7038 34.875 9.875V3.625C34.875 2.7962 35.2042 2.00134 35.7903 1.41529C36.3763 0.82924 37.1712 0.5 38 0.5C38.8288 0.5 39.6237 0.82924 40.2097 1.41529C40.7958 2.00134 41.125 2.7962 41.125 3.625ZM38 63C37.1712 63 36.3763 63.3292 35.7903 63.9153C35.2042 64.5013 34.875 65.2962 34.875 66.125V72.375C34.875 73.2038 35.2042 73.9987 35.7903 74.5847C36.3763 75.1708 37.1712 75.5 38 75.5C38.8288 75.5 39.6237 75.1708 40.2097 74.5847C40.7958 73.9987 41.125 73.2038 41.125 72.375V66.125C41.125 65.2962 40.7958 64.5013 40.2097 63.9153C39.6237 63.3292 38.8288 63 38 63ZM13 38C13 37.1712 12.6708 36.3763 12.0847 35.7903C11.4987 35.2042 10.7038 34.875 9.875 34.875H3.625C2.7962 34.875 2.00134 35.2042 1.41529 35.7903C0.82924 36.3763 0.5 37.1712 0.5 38C0.5 38.8288 0.82924 39.6237 1.41529 40.2097C2.00134 40.7958 2.7962 41.125 3.625 41.125H9.875C10.7038 41.125 11.4987 40.7958 12.0847 40.2097C12.6708 39.6237 13 38.8288 13 38ZM72.375 34.875H66.125C65.2962 34.875 64.5013 35.2042 63.9153 35.7903C63.3292 36.3763 63 37.1712 63 38C63 38.8288 63.3292 39.6237 63.9153 40.2097C64.5013 40.7958 65.2962 41.125 66.125 41.125H72.375C73.2038 41.125 73.9987 40.7958 74.5847 40.2097C75.1708 39.6237 75.5 38.8288 75.5 38C75.5 37.1712 75.1708 36.3763 74.5847 35.7903C73.9987 35.2042 73.2038 34.875 72.375 34.875ZM56.8062 5.55625C56.4511 5.35032 56.0588 5.21639 55.6519 5.16211C55.245 5.10783 54.8313 5.13426 54.4346 5.23989C54.0379 5.34553 53.6659 5.5283 53.3399 5.77776C53.0138 6.02722 52.7401 6.33847 52.5344 6.69375L49.4094 12.1031C48.9947 12.8205 48.882 13.6732 49.0959 14.4737C49.3098 15.2742 49.8328 15.9569 50.55 16.3719C51.024 16.6491 51.5634 16.7947 52.1125 16.7938C52.661 16.7937 53.1999 16.6493 53.675 16.3751C54.15 16.1008 54.5445 15.7063 54.8187 15.2313L57.9437 9.82188C58.3577 9.10517 58.4704 8.25353 58.2571 7.45383C58.0438 6.65414 57.5221 5.9717 56.8062 5.55625ZM25.4594 59.6281C24.7424 59.2132 23.89 59.1 23.0895 59.3133C22.2891 59.5266 21.6061 60.049 21.1906 60.7656L18.0656 66.175C17.6507 66.892 17.5375 67.7444 17.7508 68.5448C17.9641 69.3453 18.4865 70.0283 19.2031 70.4437C19.6772 70.7207 20.2166 70.8663 20.7656 70.8656C21.3147 70.8662 21.8542 70.722 22.3299 70.4477C22.8055 70.1734 23.2005 69.7786 23.475 69.3031L26.6 63.8937C27.0137 63.1767 27.1259 62.3247 26.912 61.525C26.6982 60.7253 26.1757 60.043 25.4594 59.6281ZM15.2344 21.1906L9.825 18.0656C9.10954 17.6806 8.27225 17.5894 7.49066 17.8113C6.70907 18.0332 6.04462 18.5507 5.6382 19.2543C5.23177 19.9578 5.11532 20.7919 5.31354 21.5799C5.51176 22.3678 6.00906 23.0475 6.7 23.475L12.1094 26.6C12.8248 26.985 13.6621 27.0763 14.4437 26.8544C15.2253 26.6325 15.8898 26.1149 16.2962 25.4114C16.7026 24.7079 16.819 23.8737 16.6208 23.0858C16.4226 22.2978 15.9253 21.6181 15.2344 21.1906ZM69.2969 52.5344L63.8875 49.4094C63.172 49.0244 62.3348 48.9331 61.5532 49.155C60.7716 49.3769 60.1071 49.8945 59.7007 50.598C59.2943 51.3015 59.1778 52.1357 59.376 52.9236C59.5743 53.7115 60.0716 54.3913 60.7625 54.8187L66.1719 57.9437C66.6459 58.221 67.1853 58.3666 67.7344 58.3656C68.4223 58.3656 69.0909 58.1386 69.6367 57.7198C70.1824 57.301 70.5747 56.7139 70.7528 56.0494C70.9308 55.385 70.8846 54.6804 70.6214 54.0448C70.3582 53.4093 69.8926 52.8783 69.2969 52.5344ZM23.4656 6.69375C23.0382 6.00281 22.3584 5.50551 21.5705 5.30729C20.7826 5.10907 19.9484 5.22552 19.2449 5.63195C18.5414 6.03837 18.0238 6.70282 17.8019 7.48441C17.58 8.266 17.6712 9.10329 18.0562 9.81875L21.1812 15.2281C21.4555 15.7032 21.85 16.0977 22.325 16.3719C22.8001 16.6462 23.339 16.7906 23.8875 16.7906C24.4366 16.7916 24.976 16.646 25.45 16.3688C26.1672 15.9538 26.6902 15.271 26.9041 14.4705C27.118 13.67 27.0053 12.8174 26.5906 12.1L23.4656 6.69375ZM54.8094 60.7562C54.3819 60.0653 53.7022 59.568 52.9142 59.3698C52.1263 59.1716 51.2921 59.288 50.5886 59.6944C49.8851 60.1009 49.3675 60.7653 49.1456 61.5469C48.9237 62.3285 49.015 63.1658 49.4 63.8812L52.525 69.2906C52.9525 69.9816 53.6322 70.4789 54.4201 70.6771C55.2081 70.8753 56.0422 70.7589 56.7458 70.3524C57.4493 69.946 57.9668 69.2816 58.1887 68.5C58.4106 67.7184 58.3194 66.8811 57.9344 66.1656L54.8094 60.7562ZM62.3344 27.0063C62.8829 27.0062 63.4218 26.8618 63.8969 26.5875L69.3063 23.4625C69.9972 23.035 70.4945 22.3553 70.6927 21.5674C70.8909 20.7794 70.7745 19.9453 70.368 19.2418C69.9616 18.5382 69.2972 18.0207 68.5156 17.7988C67.734 17.5769 66.8967 17.6681 66.1813 18.0531L60.7719 21.1781C60.1777 21.5228 59.7137 22.0536 59.4515 22.6885C59.1893 23.3234 59.1436 24.027 59.3215 24.6905C59.4994 25.3539 59.8909 25.9403 60.4355 26.3589C60.9801 26.7775 61.6475 27.005 62.3344 27.0063ZM12.1031 49.4L6.69375 52.525C6.09803 52.869 5.63246 53.3999 5.36923 54.0354C5.106 54.671 5.05983 55.3756 5.23787 56.0401C5.41591 56.7045 5.80822 57.2917 6.35396 57.7104C6.89969 58.1292 7.56836 58.3562 8.25625 58.3563C8.80535 58.3572 9.34476 58.2116 9.81875 57.9344L15.2281 54.8094C15.9191 54.3819 16.4164 53.7022 16.6146 52.9142C16.8128 52.1263 16.6964 51.2921 16.2899 50.5886C15.8835 49.8851 15.2191 49.3675 14.4375 49.1456C13.6559 48.9237 12.8186 49.015 12.1031 49.4Z" fill="white"/>
</g>
<defs>
<clipPath id="clip0_28_760">
<rect width="75" height="75" fill="white" transform="translate(0.5 0.5)"/>
</clipPath>
</defs>
</svg>
